<svg width="58" height="58" viewBox="0 0 58 58" fill="none" xmlns="http://www.w3.org/2000/svg">
<rect x="1" y="1" width="56" height="56" rx="28" stroke="#E5E5E5" stroke-width="2"/>
<path d="M17.9531 27.9016L33.9669 17.7918C37.1303 15.7947 41.222 16.4349 43.26 19.5303C45.5937 23.071 44.4402 28.0338 40.8984 30.2698L22.1904 42.0804C20.2076 43.3322 17.6222 42.984 16.3409 41.0542C14.8625 38.8274 15.5822 35.7186 17.8072 34.3139L33.6999 24.2806C34.5323 23.7551 35.5889 24.0361 36.0477 24.9051C36.5066 25.7742 36.2009 26.9152 35.3684 27.4408L22.1245 35.8018C21.5039 36.1936 21.2729 37.0557 21.615 37.7035C21.957 38.3513 22.7553 38.5637 23.3759 38.1719L36.4079 29.9446C38.3907 28.6928 39.4077 26.0705 38.5199 23.8922C37.4955 21.3788 34.6734 20.5059 32.4485 21.9106L16.8131 31.7814C13.6497 33.7785 12.1108 37.9733 13.5434 41.4509C15.1892 45.447 19.6881 46.8203 23.2299 44.5843L41.8017 32.8597C46.1457 30.1172 48.2836 24.3434 46.3063 19.5664C44.0156 14.0814 37.8466 12.1824 32.9728 15.2593L16.7017 25.5315C16.0812 25.9232 15.8502 26.7854 16.1923 27.4332C16.5343 28.081 17.3326 28.2933 17.9531 27.9016Z" fill="#606060"/>
</svg>
