<svg width="62" height="62" viewBox="0 0 62 62" fill="none" xmlns="http://www.w3.org/2000/svg">
<path d="M42.7396 32.6663C43.4414 32.7655 44.1503 32.8173 44.8605 32.8213C47.3219 32.7701 49.7423 32.2348 51.9567 31.2518C54.1711 30.2688 56.1274 28.8612 57.6924 27.125C60.4513 24.2354 61.9796 20.5354 61.998 16.7013C62.0318 14.9333 61.6411 13.18 60.8532 11.5649C60.0654 9.94978 58.8996 8.51201 57.4379 7.35281C55.4134 5.79228 52.9085 4.84448 50.269 4.64031C49.7939 3.22016 49.1872 1.83954 48.4556 0.513437C48.3671 0.361605 48.236 0.234017 48.0758 0.143783C47.9155 0.0535495 47.7318 0.00392218 47.5436 0L14.4564 0C14.2682 0.00392218 14.0845 0.0535495 13.9242 0.143783C13.764 0.234017 13.6329 0.361605 13.5444 0.513437C12.8139 1.83331 12.2073 3.2074 11.731 4.62094C9.09052 4.82132 6.58435 5.76958 4.56211 7.33344C3.10043 8.49264 1.93463 9.9304 1.14678 11.5455C0.358933 13.1607 -0.0318203 14.9139 0.00202515 16.6819C0.015337 20.5227 1.54398 24.2304 4.30759 27.125C5.86637 28.8643 7.81804 30.2754 10.0291 31.2619C12.2401 32.2483 14.6583 32.7869 17.1183 32.8406C17.8289 32.8377 18.5382 32.7826 19.2392 32.6759C21.2096 34.2639 23.5213 35.4584 26.0263 36.1828V45.8122H23.2691C22.9878 45.8122 22.7181 45.9143 22.5192 46.0959C22.3203 46.2776 22.2086 46.524 22.2086 46.7809V53.1456C20.1936 53.4952 18.3736 54.4721 17.0587 55.91C15.7437 57.3479 15.0152 59.1577 14.9973 61.0312C14.9973 61.2882 15.109 61.5346 15.3079 61.7163C15.5068 61.8979 15.7765 62 16.0578 62H45.974C46.2553 62 46.525 61.8979 46.7239 61.7163C46.9228 61.5346 47.0345 61.2882 47.0345 61.0312C47.0339 59.1375 46.3068 57.3038 44.9797 55.849C43.6525 54.3941 41.8092 53.4102 39.7702 53.0681V46.7325C39.7702 46.4756 39.6585 46.2292 39.4596 46.0475C39.2607 45.8658 38.991 45.7638 38.7097 45.7638H35.9525V36.1634C38.4568 35.4424 40.7686 34.2512 42.7396 32.6663ZM56.1017 8.76719C57.3357 9.75219 58.3189 10.972 58.982 12.3409C59.6452 13.7099 59.9724 15.1948 59.9406 16.6916C59.9221 20.0761 58.5664 23.3408 56.1229 25.885C54.7356 27.4443 52.9891 28.705 51.0076 29.5773C49.0261 30.4497 46.8585 30.9123 44.659 30.9322C49.3053 26.0083 51.8044 19.6941 51.6795 13.1944C51.684 10.9671 51.4064 8.74681 50.8523 6.57781C52.79 6.85032 54.6071 7.60817 56.1017 8.76719ZM15.0927 1.87938H46.9073C47.5623 3.14763 48.1014 4.46314 48.5192 5.8125C49.2376 8.20789 49.5944 10.6817 49.5797 13.1653C49.6221 25.1875 41.2655 34.9816 31 34.9816C20.7345 34.9816 12.3779 25.1875 12.3779 13.1944C12.3622 10.7139 12.719 8.24315 13.4384 5.85125C13.869 4.48788 14.4223 3.1594 15.0927 1.87938ZM5.87711 25.885C3.43363 23.3408 2.07793 20.0761 2.05937 16.6916C2.02759 15.1948 2.35477 13.7099 3.01796 12.3409C3.68115 10.972 4.66427 9.75219 5.89832 8.76719C7.39294 7.60817 9.21002 6.85032 11.1477 6.57781C10.5936 8.74681 10.316 10.9671 10.3205 13.1944C10.1987 19.6919 12.6932 26.0041 17.3303 30.9322C15.1356 30.8958 12.9756 30.4259 10.9985 29.5547C9.02146 28.6834 7.27431 27.4315 5.87711 25.885ZM44.8711 60.1206H17.1289C17.3767 58.6504 18.1914 57.3094 19.4262 56.3395C20.661 55.3696 22.2345 54.8347 23.8629 54.8312H38.1265C39.7561 54.8344 41.3311 55.3689 42.5676 56.3387C43.8041 57.3084 44.621 58.6495 44.8711 60.1206ZM37.6811 52.9519H24.3189V47.6722H37.6811V52.9519ZM33.8951 45.7928H28.1049V36.6187C30.0187 36.9423 31.9813 36.9423 33.8951 36.6187V45.7928Z" fill="white"/>
</svg>
