<svg width="62" height="54" viewBox="0 0 62 54" fill="none" xmlns="http://www.w3.org/2000/svg">
<path d="M5.53571 54H56.4643C59.5156 54 62 51.4755 62 48.375V14.625C62 11.5245 59.5156 9 56.4643 9H45.1493L43.9846 4.2615C43.6863 3.04354 42.9952 1.96214 42.0216 1.18977C41.048 0.4174 39.8479 -0.00145508 38.6127 3.7981e-06H23.3851C22.1502 -0.00134565 20.9504 0.417593 19.9771 1.18998C19.0039 1.96238 18.3133 3.04372 18.0154 4.2615L16.8507 9H5.53571C4.06809 9.00179 2.66108 9.59499 1.62331 10.6495C0.585548 11.704 0.00175799 13.1337 0 14.625V48.375C0 51.4755 2.48443 54 5.53571 54ZM56.4643 51.75H5.53571C3.7045 51.75 2.21429 50.2357 2.21429 48.375V25.1325L25.4643 32.1323V39.375C25.4643 39.6734 25.5809 39.9595 25.7886 40.1705C25.9962 40.3815 26.2778 40.5 26.5714 40.5H35.4286C35.7222 40.5 36.0038 40.3815 36.2114 40.1705C36.4191 39.9595 36.5357 39.6734 36.5357 39.375V32.1323L59.7857 25.1325V48.375C59.7857 50.2357 58.2955 51.75 56.4643 51.75ZM31 36C30.7064 36 30.4248 36.1185 30.2171 36.3295C30.0095 36.5405 29.8929 36.8266 29.8929 37.125V38.25H27.6786V33.75H34.3214V38.25H32.1071V37.125C32.1071 36.8266 31.9905 36.5405 31.7829 36.3295C31.5752 36.1185 31.2936 36 31 36ZM34.3214 31.2908V31.5H27.6786V29.25H34.3214V31.2908ZM20.1633 4.806C20.3424 4.0752 20.7572 3.42641 21.3416 2.96314C21.9259 2.49986 22.6461 2.2488 23.3873 2.25H38.6149C39.3559 2.24958 40.0757 2.50094 40.6599 2.96409C41.2441 3.42724 41.6591 4.07559 41.8389 4.806L42.8686 9H19.1314L20.1633 4.806ZM2.21429 14.625C2.21429 12.7643 3.7045 11.25 5.53571 11.25H56.4643C58.2955 11.25 59.7857 12.7643 59.7857 14.625V22.7835L36.5357 29.7833V28.125C36.5357 27.8266 36.4191 27.5405 36.2114 27.3295C36.0038 27.1185 35.7222 27 35.4286 27H26.5714C26.2778 27 25.9962 27.1185 25.7886 27.3295C25.5809 27.5405 25.4643 27.8266 25.4643 28.125V29.7855L2.21429 22.7835V14.625Z" fill="white"/>
</svg>
