<svg width="62" height="62" viewBox="0 0 62 62" fill="none" xmlns="http://www.w3.org/2000/svg">
<path d="M31.0011 28.6763C29.7172 28.6763 28.6762 29.7173 28.6762 31.0012C28.6762 32.2851 29.7172 33.3261 31.0011 33.3261C32.285 33.3261 33.326 32.2851 33.326 31.0012C33.326 29.7173 32.285 28.6763 31.0011 28.6763ZM21.7015 28.6763C20.4176 28.6763 19.3766 29.7173 19.3766 31.0012C19.3766 32.2851 20.4176 33.3261 21.7015 33.3261C22.9854 33.3261 24.0264 32.2851 24.0264 31.0012C24.0264 29.7173 22.9854 28.6763 21.7015 28.6763ZM40.3007 28.6763C39.0168 28.6763 37.9758 29.7173 37.9758 31.0012C37.9758 32.2851 39.0168 33.3261 40.3007 33.3261C41.5846 33.3261 42.6256 32.2851 42.6256 31.0012C42.6256 29.7173 41.5846 28.6763 40.3007 28.6763ZM53.9875 10.2019C42.5009 -2.4937 22.8974 -3.47396 10.2019 8.01247C-2.4937 19.4991 -3.47395 39.1026 8.01244 51.7983L0.456514 59.3542C0.165901 59.6448 0.00262103 60.0389 0.00262103 60.4499C0.00243163 61.3058 0.696421 61.9998 1.55237 62H31.0011C38.687 61.9998 46.0988 59.1442 51.7981 53.9877C64.4938 42.5011 65.4739 22.8975 53.9875 10.2019ZM31.0011 58.9001H5.29381L11.2727 52.9214C11.2727 52.9215 11.2729 52.9212 11.2727 52.9214C11.8778 52.3161 11.878 51.3345 11.2727 50.7296C6.0421 45.499 3.10306 38.4049 3.1023 31.0075C3.1006 15.601 15.5884 3.11026 30.9949 3.10855C46.4011 3.10685 58.892 15.5947 58.8937 31.0012C58.8954 46.4075 46.4075 58.8984 31.0011 58.9001Z" fill="white"/>
</svg>
