<svg width="68" height="68" viewBox="0 0 68 68" fill="none" xmlns="http://www.w3.org/2000/svg">
<path d="M67.6869 12.2329L59.1742 8.82583L55.7685 0.311667L51.3117 4.76708C46.0751 1.64957 40.0943 0.00266922 34 0C15.2533 0 0 15.2533 0 34C0 52.7467 15.2533 68 34 68C52.7467 68 68 52.7467 68 34C68 27.8828 66.3425 21.9286 63.2329 16.6883L67.6869 12.2329ZM56.9925 11.0075L62.645 13.2685L59.1572 16.7549L53.5075 14.4925L51.2465 8.84142L54.7329 5.35358L56.9925 11.0075ZM65.1667 34C65.1667 51.1856 51.1856 65.1667 34 65.1667C16.8144 65.1667 2.83333 51.1856 2.83333 34C2.83333 16.8144 16.8144 2.83333 34 2.83333C39.3663 2.83333 44.6037 4.20892 49.2532 6.8255L47.9202 8.15858L50.7535 15.2433L48.9699 17.0269C44.9735 13.4952 39.7403 11.3333 34 11.3333C21.5022 11.3333 11.3333 21.5022 11.3333 34C11.3333 46.4978 21.5022 56.6667 34 56.6667C46.4978 56.6667 56.6667 46.4978 56.6667 34C56.6667 28.2597 54.5048 23.0265 50.9745 19.0287L52.7581 17.2451L59.8428 20.0784L61.1759 18.7453C63.7955 23.4026 65.17 28.6566 65.1667 34ZM42.5 34C42.5 38.6877 38.6877 42.5 34 42.5C29.3122 42.5 25.5 38.6877 25.5 34C25.5 29.3122 29.3122 25.5 34 25.5C35.8332 25.5 37.5275 26.0893 38.9173 27.0796L34.7253 31.2715C34.4891 31.2056 34.2453 31.1703 34 31.1667C33.4396 31.1667 32.8918 31.3328 32.4259 31.6442C31.9599 31.9555 31.5968 32.398 31.3823 32.9157C31.1679 33.4335 31.1118 34.0031 31.2211 34.5528C31.3304 35.1024 31.6003 35.6072 31.9965 36.0035C32.3928 36.3997 32.8976 36.6696 33.4472 36.7789C33.9969 36.8882 34.5665 36.8321 35.0843 36.6177C35.602 36.4032 36.0445 36.0401 36.3558 35.5741C36.6672 35.1082 36.8333 34.5604 36.8333 34C36.8333 33.7478 36.7894 33.5084 36.7285 33.2747L40.9204 29.0827C41.9475 30.5166 42.4999 32.2362 42.5 34ZM40.9388 25.058C38.9576 23.5088 36.515 22.667 34 22.6667C27.7511 22.6667 22.6667 27.7511 22.6667 34C22.6667 40.2489 27.7511 45.3333 34 45.3333C40.2489 45.3333 45.3333 40.2489 45.3333 34C45.333 31.485 44.4912 29.0424 42.942 27.0612L48.9727 21.0304C52.1066 24.6245 53.8332 29.2316 53.8333 34C53.8333 44.9367 44.9367 53.8333 34 53.8333C23.0633 53.8333 14.1667 44.9367 14.1667 34C14.1667 23.0633 23.0633 14.1667 34 14.1667C38.9583 14.1667 43.4874 16.0083 46.9682 19.0287L40.9388 25.058Z" fill="white"/>
</svg>
