<svg width="37" height="37" viewBox="0 0 37 37" fill="none" xmlns="http://www.w3.org/2000/svg">
<path d="M35.4557 25.4904L32.1519 22.1866C31.167 21.2097 29.8377 20.6589 28.4506 20.653C27.0634 20.6471 25.7295 21.1866 24.7364 22.1551C24.2064 22.688 23.5074 23.0196 22.7594 23.0928C22.0114 23.166 21.2613 22.9762 20.6382 22.556C18.1786 20.9146 16.0657 18.8057 14.4195 16.3494C14.0068 15.7193 13.8238 14.9661 13.9015 14.2169C13.9792 13.4677 14.3128 12.7681 14.846 12.2361C15.8057 11.2421 16.3383 9.91182 16.3296 8.53009C16.3209 7.14836 15.7716 5.82493 14.7994 4.84305L11.4957 1.53922C10.5065 0.553493 9.16705 0 7.77062 0C6.3742 0 5.03471 0.553493 4.0456 1.53922L3.095 2.49133C-1.86069 7.44706 -1.48976 17.8661 8.82108 28.171C15.0382 34.3897 21.2959 36.9938 26.3702 36.9938C27.864 37.0435 29.3526 36.7955 30.7495 36.2641C32.1464 35.7327 33.4236 34.9286 34.5066 33.8987L35.4587 32.9466C36.4462 31.957 37.0006 30.6159 37 29.2179C36.9994 27.8199 36.444 26.4792 35.4557 25.4904ZM33.3322 30.8231L32.3801 31.7752C28.4757 35.6797 19.8573 34.9664 10.9415 26.0491C2.02578 17.1318 1.31095 8.50729 5.21544 4.60277L6.16002 3.65217C6.58533 3.2284 7.16123 2.99046 7.76161 2.99046C8.36199 2.99046 8.9379 3.2284 9.3632 3.65217L12.667 6.95599C13.0846 7.37566 13.3216 7.94191 13.3275 8.53391C13.3334 9.12591 13.1077 9.69676 12.6985 10.1247C11.6838 11.1459 11.0508 12.4848 10.9056 13.9172C10.7605 15.3495 11.1119 16.7882 11.9011 17.9923C13.7716 20.7914 16.1769 23.1931 18.9787 25.0594C20.1792 25.8488 21.6141 26.2023 23.0439 26.061C24.4736 25.9197 25.8116 25.2921 26.8343 24.283C27.2613 23.8691 27.8338 23.6392 28.4286 23.6428C29.0234 23.6465 29.593 23.8834 30.0149 24.3026L33.3187 27.6064C33.5316 27.8163 33.701 28.0661 33.817 28.3417C33.933 28.6172 33.9933 28.913 33.9946 29.2119C33.9958 29.5109 33.938 29.8072 33.8243 30.0837C33.7106 30.3602 33.5434 30.6115 33.3322 30.8231Z" fill="black"/>
</svg>
